<svg width="12" height="4" viewBox="0 0 12 4" fill="none" xmlns="http://www.w3.org/2000/svg">
<path fill-rule="evenodd" clip-rule="evenodd" d="M6 2.03125C6.02486 2.03125 6.04871 2.02137 6.06629 2.00379C6.08387 1.98621 6.09375 1.96236 6.09375 1.9375C6.09375 1.91264 6.08387 1.88879 6.06629 1.87121C6.04871 1.85363 6.02486 1.84375 6 1.84375C5.97514 1.84375 5.95129 1.85363 5.93371 1.87121C5.91613 1.88879 5.90625 1.91264 5.90625 1.9375C5.90625 1.96236 5.91613 1.98621 5.93371 2.00379C5.95129 2.02137 5.97514 2.03125 6 2.03125ZM4.59375 1.9375C4.59375 1.75283 4.63012 1.56997 4.70079 1.39935C4.77147 1.22874 4.87505 1.07371 5.00563 0.943131C5.13621 0.812548 5.29124 0.708965 5.46185 0.638294C5.63247 0.567624 5.81533 0.53125 6 0.53125C6.18467 0.53125 6.36753 0.567624 6.53815 0.638294C6.70876 0.708965 6.86379 0.812548 6.99437 0.943131C7.12495 1.07371 7.22853 1.22874 7.29921 1.39935C7.36988 1.56997 7.40625 1.75283 7.40625 1.9375C7.40625 2.31046 7.25809 2.66815 6.99437 2.93187C6.73065 3.19559 6.37296 3.34375 6 3.34375C5.62704 3.34375 5.26935 3.19559 5.00563 2.93187C4.74191 2.66815 4.59375 2.31046 4.59375 1.9375ZM10.5938 2.03125C10.6186 2.03125 10.6425 2.02137 10.66 2.00379C10.6776 1.98621 10.6875 1.96236 10.6875 1.9375C10.6875 1.91264 10.6776 1.88879 10.66 1.87121C10.6425 1.85363 10.6186 1.84375 10.5938 1.84375C10.5689 1.84375 10.545 1.85363 10.5275 1.87121C10.5099 1.88879 10.5 1.91264 10.5 1.9375C10.5 1.96236 10.5099 1.98621 10.5275 2.00379C10.545 2.02137 10.5689 2.03125 10.5938 2.03125ZM9.1875 1.9375C9.1875 1.56454 9.33566 1.20685 9.59938 0.943131C9.8631 0.679408 10.2208 0.53125 10.5938 0.53125C10.9667 0.53125 11.3244 0.679408 11.5881 0.943131C11.8518 1.20685 12 1.56454 12 1.9375C12 2.31046 11.8518 2.66815 11.5881 2.93187C11.3244 3.19559 10.9667 3.34375 10.5938 3.34375C10.2208 3.34375 9.8631 3.19559 9.59938 2.93187C9.33566 2.66815 9.1875 2.31046 9.1875 1.9375ZM1.40625 2.03125C1.43111 2.03125 1.45496 2.02137 1.47254 2.00379C1.49012 1.98621 1.5 1.96236 1.5 1.9375C1.5 1.91264 1.49012 1.88879 1.47254 1.87121C1.45496 1.85363 1.43111 1.84375 1.40625 1.84375C1.38139 1.84375 1.35754 1.85363 1.33996 1.87121C1.32238 1.88879 1.3125 1.91264 1.3125 1.9375C1.3125 1.96236 1.32238 1.98621 1.33996 2.00379C1.35754 2.02137 1.38139 2.03125 1.40625 2.03125ZM0 1.9375C-3.89166e-09 1.75283 0.0363738 1.56997 0.107044 1.39935C0.177715 1.22874 0.281299 1.07371 0.411881 0.943131C0.542463 0.812548 0.697487 0.708965 0.868101 0.638294C1.03872 0.567624 1.22158 0.53125 1.40625 0.53125C1.59092 0.53125 1.77378 0.567624 1.9444 0.638294C2.11501 0.708965 2.27004 0.812548 2.40062 0.943131C2.5312 1.07371 2.63478 1.22874 2.70546 1.39935C2.77613 1.56997 2.8125 1.75283 2.8125 1.9375C2.8125 2.31046 2.66434 2.66815 2.40062 2.93187C2.1369 3.19559 1.77921 3.34375 1.40625 3.34375C1.03329 3.34375 0.675604 3.19559 0.411881 2.93187C0.148158 2.66815 7.85956e-09 2.31046 0 1.9375Z" fill="#212121"/>
</svg>
